<?xml version="1.0" encoding="UTF-8" standalone="no"?>
<!-- Created with Inkscape (http://www.inkscape.org/) -->

<svg
   xmlns:dc="http://purl.org/dc/elements/1.1/"
   xmlns:cc="http://creativecommons.org/ns#"
   xmlns:rdf="http://www.w3.org/1999/02/22-rdf-syntax-ns#"
   xmlns:svg="http://www.w3.org/2000/svg"
   xmlns="http://www.w3.org/2000/svg"
   xmlns:sodipodi="http://sodipodi.sourceforge.net/DTD/sodipodi-0.dtd"
   xmlns:inkscape="http://www.inkscape.org/namespaces/inkscape"
   version="1.1"
   id="svg2"
   width="170.66667"
   height="170.66667"
   viewBox="0 0 170.66667 170.66667"
   sodipodi:docname="blank.svg"
   inkscape:version="0.92.1 unknown">
  <metadata
     id="metadata8">
    <rdf:RDF>
      <cc:Work
         rdf:about="">
        <dc:format>image/svg+xml</dc:format>
        <dc:type
           rdf:resource="http://purl.org/dc/dcmitype/StillImage" />
        <dc:title></dc:title>
      </cc:Work>
    </rdf:RDF>
  </metadata>
  <defs
     id="defs6" />
  <sodipodi:namedview
     pagecolor="#ffffff"
     bordercolor="#666666"
     borderopacity="1"
     objecttolerance="10"
     gridtolerance="10"
     guidetolerance="10"
     inkscape:pageopacity="0"
     inkscape:pageshadow="2"
     inkscape:window-width="1680"
     inkscape:window-height="1022"
     id="namedview4"
     showgrid="false"
     inkscape:zoom="2.7656249"
     inkscape:cx="133.30504"
     inkscape:cy="87.754878"
     inkscape:window-x="1920"
     inkscape:window-y="0"
     inkscape:window-maximized="1"
     inkscape:current-layer="svg2" />
  <path
     style="fill:#6dabbf;fill-opacity:1;stroke:#6dabbf;stroke-width:0.36158192;stroke-opacity:1"
     d="m 70.213361,169.91118 c -14.64387,-3.16521 -27.40388,-9.03953 -37.77487,-17.39041 -6.56564,-5.28676 -13.81737,-13.2932 -18.80443,-20.76147 C 10.642631,127.27954 6.3096006,118.54322 4.5775406,113.49941 2.9831506,108.85651 1.3158527,102.1563 0.7787637,98.233633 0.2545146,94.404733 0.2533346,76.214479 0.7770637,72.279068 2.1771707,61.758694 7.2381246,48.668821 13.708455,38.83274 c 10.35102,-15.735423 23.81767,-26.664566 41.3726,-33.576807 8.7253,-3.4355845 10.66769,-3.8435325 20.19443,-4.2413235 4.67345,-0.19514005 12.8904,-0.24904005 18.25989,-0.11977605 l 9.762715,0.23502505 4.1582,1.252617 c 12.22237,3.6818785 23.22966,9.2524975 31.45762,15.9202295 3.66831,2.972698 12.01115,11.546782 14.71446,15.122302 8.32653,11.01303 13.7845,23.341484 16.22155,36.641205 1.36896,7.470858 1.26238,23.727498 -0.20507,31.279628 -2.58913,13.32478 -8.00812,25.5707 -15.85842,35.83718 -2.59621,3.39527 -11.06721,11.89964 -15.05331,15.11261 -10.05745,8.10676 -20.5345,13.28114 -33.44633,16.51841 -6.376595,1.59875 -8.933455,1.81745 -20.907525,1.78838 -9.33759,-0.0227 -11.57871,-0.13203 -14.16592,-0.69124 z"
     id="path44"
     inkscape:connector-curvature="0" />
</svg>
