<?xml version="1.0" encoding="utf-8"?>
<!-- Generator: Adobe Illustrator 27.2.0, SVG Export Plug-In . SVG Version: 6.00 Build 0)  -->
<svg version="1.1"
	 id="svg2" xmlns:sodipodi="http://sodipodi.sourceforge.net/DTD/sodipodi-0.dtd" xmlns:svg="http://www.w3.org/2000/svg" xmlns:cc="http://creativecommons.org/ns#" xmlns:dc="http://purl.org/dc/elements/1.1/" xmlns:rdf="http://www.w3.org/1999/02/22-rdf-syntax-ns#" xmlns:inkscape="http://www.inkscape.org/namespaces/inkscape"
	 xmlns="http://www.w3.org/2000/svg" xmlns:xlink="http://www.w3.org/1999/xlink" x="0px" y="0px" viewBox="0 0 162.4 162.9"
	 style="enable-background:new 0 0 162.4 162.9;" xml:space="preserve">
<style type="text/css">
	.st0{fill:none;stroke:#3498DB;stroke-width:6;}
	.st1{fill:#FFFFFF;}
</style>
<sodipodi:namedview  bordercolor="#666666" borderopacity="1" gridtolerance="10" guidetolerance="10" id="namedview4" inkscape:current-layer="svg2" inkscape:cx="133.30504" inkscape:cy="87.754878" inkscape:pageopacity="0" inkscape:pageshadow="2" inkscape:window-height="1022" inkscape:window-maximized="1" inkscape:window-width="1680" inkscape:window-x="1920" inkscape:window-y="0" inkscape:zoom="2.7656249" objecttolerance="10" pagecolor="#ffffff" showgrid="false">
	</sodipodi:namedview>
<path id="path44" inkscape:connector-curvature="0" class="st0" d="M66.1,158.4c-13.4-2.9-25.1-8.3-34.5-15.9
	c-6-4.8-12.6-12.2-17.2-19c-2.7-4.1-6.7-12.1-8.3-16.7c-1.5-4.2-3-10.4-3.5-14c-0.5-3.5-0.5-20.1,0-23.7C4,59.5,8.6,47.5,14.5,38.6
	C24,24.2,36.3,14.2,52.3,7.9c8-3.1,9.8-3.5,18.5-3.9C75,3.8,82.6,3.8,87.5,3.9l8.9,0.2l3.8,1.1c11.2,3.4,21.2,8.5,28.8,14.6
	c3.4,2.7,11,10.6,13.5,13.8c7.6,10.1,12.6,21.3,14.8,33.5c1.3,6.8,1.2,21.7-0.2,28.6c-2.4,12.2-7.3,23.4-14.5,32.8
	c-2.4,3.1-10.1,10.9-13.8,13.8c-9.2,7.4-18.8,12.1-30.6,15.1c-5.8,1.5-8.2,1.7-19.1,1.6C70.6,159,68.5,158.9,66.1,158.4L66.1,158.4z
	"/>
<rect x="40.8" y="98.5" class="st1" width="26.2" height="18.4"/>
<rect x="43.7" y="47.9" class="st1" width="26.2" height="18.4"/>
<image style="overflow:visible;" width="96" height="96" xlink:href="undo_96.png"  transform="matrix(-1.2544 0 0 1.2544 138.3173 19.8848)">
</image>
</svg>
