<?xml version="1.0" encoding="utf-8"?>
<!-- Generator: Adobe Illustrator 27.2.0, SVG Export Plug-In . SVG Version: 6.00 Build 0)  -->
<svg version="1.1"
	 id="svg2" xmlns:sodipodi="http://sodipodi.sourceforge.net/DTD/sodipodi-0.dtd" xmlns:svg="http://www.w3.org/2000/svg" xmlns:cc="http://creativecommons.org/ns#" xmlns:dc="http://purl.org/dc/elements/1.1/" xmlns:rdf="http://www.w3.org/1999/02/22-rdf-syntax-ns#" xmlns:inkscape="http://www.inkscape.org/namespaces/inkscape"
	 xmlns="http://www.w3.org/2000/svg" xmlns:xlink="http://www.w3.org/1999/xlink" x="0px" y="0px" viewBox="0 0 174.4 173.9"
	 style="enable-background:new 0 0 174.4 173.9;" xml:space="preserve">
<style type="text/css">
	.st0{fill:none;stroke:#3498DB;stroke-width:4;}
	.st1{fill:#3498DB;stroke:#3498DB;}
	.st2{font-family:'RobotoSlab-Regular';}
	.st3{font-size:140px;}
</style>
<sodipodi:namedview  bordercolor="#666666" borderopacity="1" gridtolerance="10" guidetolerance="10" id="namedview4" inkscape:current-layer="svg2" inkscape:cx="133.30504" inkscape:cy="87.754878" inkscape:pageopacity="0" inkscape:pageshadow="2" inkscape:window-height="1022" inkscape:window-maximized="1" inkscape:window-width="1680" inkscape:window-x="1920" inkscape:window-y="0" inkscape:zoom="2.7656249" objecttolerance="10" pagecolor="#ffffff" showgrid="false">
	</sodipodi:namedview>
<path id="path44" inkscape:connector-curvature="0" class="st0" d="M71.1,163.9c-13.4-2.9-25.1-8.3-34.5-15.9
	c-6-4.8-12.6-12.2-17.2-19c-2.7-4.1-6.7-12.1-8.3-16.7c-1.5-4.2-3-10.4-3.5-14c-0.5-3.5-0.5-20.1,0-23.7c1.3-9.6,5.9-21.6,11.8-30.6
	C29,29.7,41.3,19.7,57.3,13.4c8-3.1,9.8-3.5,18.5-3.9C80,9.4,87.6,9.3,92.5,9.4l8.9,0.2l3.8,1.1c11.2,3.4,21.2,8.5,28.8,14.6
	c3.4,2.7,11,10.6,13.5,13.8c7.6,10.1,12.6,21.3,14.8,33.5c1.3,6.8,1.2,21.7-0.2,28.6c-2.4,12.2-7.3,23.4-14.5,32.8
	c-2.4,3.1-10.1,10.9-13.8,13.8c-9.2,7.4-18.8,12.1-30.6,15.1c-5.8,1.5-8.2,1.7-19.1,1.6C75.6,164.5,73.5,164.4,71.1,163.9
	L71.1,163.9z"/>
<g>
	<text transform="matrix(1 0 0 1 35.1728 144.8172)" class="st1 st2 st3">V</text>
</g>
</svg>
